<?xml version="1.0" encoding="UTF-8" standalone="no"?>
<svg
   xmlns:dc="http://purl.org/dc/elements/1.1/"
   xmlns:cc="http://creativecommons.org/ns#"
   xmlns:rdf="http://www.w3.org/1999/02/22-rdf-syntax-ns#"
   xmlns:svg="http://www.w3.org/2000/svg"
   xmlns="http://www.w3.org/2000/svg"
   xmlns:sodipodi="http://sodipodi.sourceforge.net/DTD/sodipodi-0.dtd"
   xmlns:inkscape="http://www.inkscape.org/namespaces/inkscape"
   sodipodi:docname="Dell-logo.svg"
   inkscape:version="1.0.1 (0767f8302a, 2020-10-17)"
   id="svg8"
   version="1.1"
   viewBox="0 0 200 200"
   height="200"
   width="200">
  <defs
     id="defs2" />
  <sodipodi:namedview
     inkscape:window-maximized="0"
     inkscape:window-y="21"
     inkscape:window-x="222"
     inkscape:window-height="993"
     inkscape:window-width="1457"
     units="px"
     showgrid="false"
     inkscape:document-rotation="0"
     inkscape:current-layer="layer1"
     inkscape:document-units="px"
     inkscape:cy="148.73618"
     inkscape:cx="-71.6209"
     inkscape:zoom="0.98994949"
     inkscape:pageshadow="2"
     inkscape:pageopacity="0.0"
     borderopacity="1.0"
     bordercolor="#666666"
     pagecolor="#ffffff"
     id="base" />
  <metadata
     id="metadata5">
    <rdf:RDF>
      <cc:Work
         rdf:about="">
        <dc:format>image/svg+xml</dc:format>
        <dc:type
           rdf:resource="http://purl.org/dc/dcmitype/StillImage" />
        <dc:title />
      </cc:Work>
    </rdf:RDF>
  </metadata>
  <g
     id="layer1"
     inkscape:groupmode="layer"
     inkscape:label="Layer 1">
    <g
       id="g3716"
       transform="matrix(2.8341842,0,0,2.8341842,8.5212419,-21.764903)">
      <path
         id="path3651"
         style="fill:#00659d;fill-opacity:1;stroke-width:0.264583"
         d="M 32.277186,15.541882 A 27.420821,27.420821 0 0 0 4.8561191,42.962946 27.420821,27.420821 0 0 0 32.277186,70.38401 27.420821,27.420821 0 0 0 59.697736,42.962946 27.420821,27.420821 0 0 0 32.277186,15.541882 Z m 0,4.296894 a 23.123926,23.123926 0 0 1 23.12365,23.12417 23.123926,23.123926 0 0 1 -23.12365,23.12417 A 23.123926,23.123926 0 0 1 9.1530161,42.962946 23.123926,23.123926 0 0 1 32.277186,19.838776 Z" />
      <path
         style="fill:#00659d;fill-opacity:1;stroke:none;stroke-width:0.681377;stroke-miterlimit:4;stroke-dasharray:none;stroke-opacity:1"
         d="m 28.555366,46.154074 -3.42709,-3.449094 -0.10587,1.090772 c -0.26096,2.68871 -1.3759,4.288288 -3.54274,5.082658 -0.77145,0.28282 -1.27016,0.33748 -3.614183,0.39613 l -2.719247,0.068 v -6.360396 -6.360396 l 2.168512,0.0012 c 2.382488,0.0012 3.514378,0.147662 4.645198,0.600969 0.78337,0.314026 2.06108,1.421371 2.20651,1.912302 0.047,0.158627 0.148,0.288409 0.22447,0.288409 0.0765,0 0.93492,-0.69701 1.90766,-1.548913 0.97274,-0.851901 1.82152,-1.548914 1.8862,-1.548914 0.0647,0 0.53572,0.451444 1.04675,1.003206 l 0.92917,1.003206 -1.58904,1.385306 -1.58904,1.385304 0.51202,0.5618 c 0.28161,0.308992 0.55404,0.561801 0.60539,0.561801 0.0513,0 0.76464,-0.590607 1.58507,-1.312463 l 1.49171,-1.312462 1.00296,0.961756 c 0.55164,0.528963 1.00162,1.003404 0.99997,1.054308 -0.002,0.05091 -0.68957,0.689994 -1.52869,1.420197 l -1.52568,1.327641 0.80585,0.774191 c 0.44322,0.425803 0.85571,0.77431 0.91665,0.774456 0.061,1.46e-4 0.84997,-0.646958 1.75339,-1.43801 l 1.64259,-1.438278 0.002,-3.208464 0.002,-3.208464 h 1.37683 1.37683 v 4.868015 4.868014 h 2.4783 2.4783 v 1.475159 1.47515 h -3.84978 -3.84956 l -0.04,-1.19664 -0.04,-1.196638 -1.51452,1.340048 c -0.83298,0.73702 -1.55224,1.3419 -1.59835,1.34415 -0.0461,0.002 -1.62603,-1.54798 -3.51093,-3.444983 z m -7.63207,-0.172272 c 0.68268,-0.428277 0.96789,-0.935 1.1431,-2.030919 0.18721,-1.171003 -0.007,-2.736366 -0.41466,-3.336345 -0.46384,-0.683236 -1.33969,-1.042427 -2.541858,-1.042427 h -1.072293 v 3.410901 3.410903 l 1.21348,-0.06216 c 0.874201,-0.04478 1.341741,-0.142625 1.672231,-0.349953 z"
         id="path3705" />
      <path
         style="fill:#00659d;fill-opacity:1;stroke:none;stroke-width:0.681377;stroke-miterlimit:4;stroke-dasharray:none;stroke-opacity:1"
         d="m 43.784366,42.962943 v -6.34317 h 1.44567 1.44568 v 4.868015 4.868015 h 2.40946 2.40945 v 1.475155 1.47516 h -3.85513 -3.85513 z"
         id="path3707" />
    </g>
  </g>
</svg>
