<?xml version="1.0" encoding="UTF-8" standalone="no"?>
<svg
   xmlns:dc="http://purl.org/dc/elements/1.1/"
   xmlns:cc="http://creativecommons.org/ns#"
   xmlns:rdf="http://www.w3.org/1999/02/22-rdf-syntax-ns#"
   xmlns:svg="http://www.w3.org/2000/svg"
   xmlns="http://www.w3.org/2000/svg"
   xmlns:sodipodi="http://sodipodi.sourceforge.net/DTD/sodipodi-0.dtd"
   xmlns:inkscape="http://www.inkscape.org/namespaces/inkscape"
   width="800"
   height="600"
   viewBox="0 0 800 600.00002"
   version="1.1"
   id="svg8"
   inkscape:version="1.0.2 (394de47547, 2021-03-26)"
   sodipodi:docname="Game-Background.svg">
  <defs
     id="defs2" />
  <sodipodi:namedview
     id="base"
     pagecolor="#ffffff"
     bordercolor="#666666"
     borderopacity="1.0"
     inkscape:pageopacity="0.0"
     inkscape:pageshadow="2"
     inkscape:zoom="0.7"
     inkscape:cx="427.50132"
     inkscape:cy="294.22611"
     inkscape:document-units="px"
     inkscape:current-layer="layer1"
     inkscape:document-rotation="0"
     showgrid="false"
     units="px"
     inkscape:window-width="1457"
     inkscape:window-height="993"
     inkscape:window-x="208"
     inkscape:window-y="0"
     inkscape:window-maximized="0"
     inkscape:snap-grids="true"
     inkscape:snap-nodes="false" />
  <metadata
     id="metadata5">
    <rdf:RDF>
      <cc:Work
         rdf:about="">
        <dc:format>image/svg+xml</dc:format>
        <dc:type
           rdf:resource="http://purl.org/dc/dcmitype/StillImage" />
        <dc:title></dc:title>
      </cc:Work>
    </rdf:RDF>
  </metadata>
  <g
     inkscape:label="Layer 1"
     inkscape:groupmode="layer"
     id="layer1">
    <rect
       style="fill:#87cdde;stroke:#000000;stroke-width:0.998544;fill-opacity:1"
       id="rect12"
       width="799.00146"
       height="599.00146"
       x="0.49927199"
       y="0.49927187" />
    <g
       id="g964"
       transform="matrix(-1,0,0,0.87565047,917.61163,70.174975)">
      <path
         id="path960"
         style="fill:#6c6753;fill-opacity:1;stroke:none;stroke-width:1.09192"
         inkscape:transform-center-x="-0.85261771"
         inkscape:transform-center-y="50.928716"
         d="M 591.30078,122.19141 461.1875,275.99805 331.07422,429.80664 588.74219,430.82812 799.5,431.66406 v -56.7539 l -80.64453,-97.89063 z" />
      <path
         id="path962"
         style="fill:#ffffff;fill-opacity:1;stroke:none;stroke-width:1px;stroke-linecap:butt;stroke-linejoin:miter;stroke-opacity:1"
         d="m 591.30078,122.19141 -80.85547,95.57812 43.29136,-31.3942 39.77719,57.42479 20.86788,-59.99542 26.17401,40.11171 -1.73998,-44.0417 z"
         sodipodi:nodetypes="cccccccc" />
    </g>
    <g
       id="g958">
      <path
         id="path944"
         style="fill:#918a6f;fill-opacity:1;stroke:none;stroke-width:1.09192"
         inkscape:transform-center-x="-0.85261771"
         inkscape:transform-center-y="50.928716"
         d="M 591.30078 122.19141 L 461.1875 275.99805 L 331.07422 429.80664 L 588.74219 430.82812 L 799.5 431.66406 L 799.5 374.91016 L 718.85547 277.01953 L 591.30078 122.19141 z " />
      <path
         id="path948"
         style="fill:#ffffff;fill-opacity:1;stroke:none;stroke-width:1px;stroke-linecap:butt;stroke-linejoin:miter;stroke-opacity:1"
         d="m 591.30078,122.19141 -80.85547,95.57812 64.68879,-38.9243 18.37976,64.95489 18.6464,-47.52076 71.43857,50.59609 -11.28242,-26.34615 z"
         sodipodi:nodetypes="cccccccc" />
    </g>
    <g
       id="g942"
       transform="matrix(0.61032552,-0.11191065,0.11191065,0.61032552,55.0325,55.23039)">
      <ellipse
         style="fill:#338000;fill-opacity:1;stroke:none"
         id="ellipse934"
         cx="439.30054"
         cy="641.97906"
         rx="15.24674"
         ry="9.5845518" />
      <ellipse
         style="fill:#338000;fill-opacity:1;stroke:none"
         id="ellipse936"
         cx="428.1488"
         cy="635.12195"
         rx="7.165647"
         ry="6.5345435" />
      <ellipse
         style="fill:#338000;fill-opacity:1;stroke:none;stroke-width:1.13541"
         id="ellipse938"
         cx="440.19235"
         cy="631.62567"
         rx="7.165647"
         ry="8.4241047" />
      <ellipse
         style="fill:#338000;fill-opacity:1;stroke:none;stroke-width:1.13541"
         id="ellipse940"
         cx="765.34869"
         cy="-145.56209"
         rx="7.165647"
         ry="8.4241047"
         transform="rotate(65.534068)" />
    </g>
    <g
       id="g974"
       transform="matrix(0.61749707,-0.0609804,0.0609804,0.61749707,113.0991,23.580028)">
      <ellipse
         style="fill:#338000;fill-opacity:1;stroke:none"
         id="ellipse966"
         cx="439.30054"
         cy="641.97906"
         rx="15.24674"
         ry="9.5845518" />
      <ellipse
         style="fill:#338000;fill-opacity:1;stroke:none"
         id="ellipse968"
         cx="428.1488"
         cy="635.12195"
         rx="7.165647"
         ry="6.5345435" />
      <ellipse
         style="fill:#338000;fill-opacity:1;stroke:none;stroke-width:1.13541"
         id="ellipse970"
         cx="440.19235"
         cy="631.62567"
         rx="7.165647"
         ry="8.4241047" />
      <ellipse
         style="fill:#338000;fill-opacity:1;stroke:none;stroke-width:1.13541"
         id="ellipse972"
         cx="765.34869"
         cy="-145.56209"
         rx="7.165647"
         ry="8.4241047"
         transform="rotate(65.534068)" />
    </g>
    <g
       id="g908"
       transform="matrix(1,0,0,0.7018443,-47.084243,175.07324)">
      <path
         id="path864"
         style="fill:#a5be57;fill-opacity:1;stroke:none;stroke-width:1.18917"
         d="M 539.39062,304.08984 A 316.88504,148.90204 0 0 0 222.50586,452.99219 316.88504,148.90204 0 0 0 482.79883,599.5 H 595.97656 A 316.88504,148.90204 0 0 0 799.5,538.03906 V 367.94531 A 316.88504,148.90204 0 0 0 539.39062,304.08984 Z" />
      <path
         id="ellipse866"
         style="fill:#a0b45f;fill-opacity:1;stroke:none;stroke-width:1.16742"
         d="M 542.75838,308.44748 A 305.39736,148.90204 0 0 0 237.36128,457.34983 305.39736,148.90204 0 0 0 424.97971,594.73264 H 660.53142 A 305.39736,148.90204 0 0 0 782.03897,549.87326 V 364.82444 A 305.39736,148.90204 0 0 0 542.75838,308.44748 Z" />
    </g>
    <g
       id="g922"
       transform="rotate(-19.978003,-92.26915,132.83512)">
      <ellipse
         style="fill:#338000;fill-opacity:1;stroke:none"
         id="path910"
         cx="439.30054"
         cy="641.97906"
         rx="15.24674"
         ry="9.5845518" />
      <ellipse
         style="fill:#338000;fill-opacity:1;stroke:none"
         id="path912"
         cx="428.1488"
         cy="635.12195"
         rx="7.165647"
         ry="6.5345435" />
      <ellipse
         style="fill:#338000;fill-opacity:1;stroke:none;stroke-width:1.13541"
         id="ellipse914"
         cx="440.19235"
         cy="631.62567"
         rx="7.165647"
         ry="8.4241047" />
      <ellipse
         style="fill:#338000;fill-opacity:1;stroke:none;stroke-width:1.13541"
         id="ellipse916"
         cx="765.34869"
         cy="-145.56209"
         rx="7.165647"
         ry="8.4241047"
         transform="rotate(65.534068)" />
    </g>
    <g
       id="g932"
       transform="rotate(-1.4286385,-12778.294,16485.082)">
      <ellipse
         style="fill:#338000;fill-opacity:1;stroke:none"
         id="ellipse924"
         cx="439.30054"
         cy="641.97906"
         rx="15.24674"
         ry="9.5845518" />
      <ellipse
         style="fill:#338000;fill-opacity:1;stroke:none"
         id="ellipse926"
         cx="428.1488"
         cy="635.12195"
         rx="7.165647"
         ry="6.5345435" />
      <ellipse
         style="fill:#338000;fill-opacity:1;stroke:none;stroke-width:1.13541"
         id="ellipse928"
         cx="440.19235"
         cy="631.62567"
         rx="7.165647"
         ry="8.4241047" />
      <ellipse
         style="fill:#338000;fill-opacity:1;stroke:none;stroke-width:1.13541"
         id="ellipse930"
         cx="765.34869"
         cy="-145.56209"
         rx="7.165647"
         ry="8.4241047"
         transform="rotate(65.534068)" />
    </g>
    <g
       id="g904"
       transform="matrix(1,0,0,0.92022403,0,47.790475)">
      <path
         id="path32"
         style="fill:#bcd35f;fill-opacity:1;stroke:none;stroke-width:1.08387px;stroke-linecap:butt;stroke-linejoin:miter;stroke-opacity:1"
         d="M 28.164062,292.75781 C 18.704388,292.7743 9.4841492,293.34539 0.5,294.38867 v 294.52344 h 799 V 366.74805 C 600.54691,345.24354 614.79126,460.0925 400.86133,430.0332 175.36529,398.34873 225.48133,310.23917 52.074219,293.86914 43.945767,293.10179 35.975408,292.74419 28.164062,292.75781 Z" />
      <path
         id="path862"
         style="fill:#a9d25f;fill-opacity:1;stroke:none;stroke-width:1.07395px;stroke-linecap:butt;stroke-linejoin:miter;stroke-opacity:1"
         d="M 40.541016,308.29621 C 26.682648,308.31993 13.332288,309.50353 0.5,311.627 v 287.43159 h 799 V 379.77682 C 613.43205,364.55228 622.6285,471.95891 413.23828,443.07334 187.74224,411.96593 237.85632,325.4611 64.449219,309.38921 c -8.128452,-0.75338 -16.096857,-1.10638 -23.908203,-1.093 z" />
    </g>
    <g
       id="g993">
      <ellipse
         style="fill:#dbe2e3;fill-opacity:1;stroke:none"
         id="path976"
         cx="92.852882"
         cy="80.057838"
         rx="31.324732"
         ry="18.619339" />
      <ellipse
         style="fill:#dbe2e3;fill-opacity:1;stroke:none"
         id="path978"
         cx="136.1013"
         cy="12.359208"
         rx="22.822071"
         ry="15.882605"
         transform="rotate(25.091549)" />
      <ellipse
         style="fill:#dbe2e3;fill-opacity:1;stroke:none;stroke-width:0.781353"
         id="path980"
         cx="80.936211"
         cy="64.854614"
         rx="17.842287"
         ry="16.283371" />
    </g>
    <ellipse
       style="fill:#dbe2e3;fill-opacity:1;stroke:none"
       id="ellipse982"
       cx="429.18109"
       cy="173.07831"
       rx="31.324732"
       ry="18.619339" />
    <ellipse
       style="fill:#dbe2e3;fill-opacity:1;stroke:none;stroke-width:0.781353"
       id="ellipse984"
       cx="414.55267"
       cy="180.21774"
       rx="17.842287"
       ry="16.283371" />
    <ellipse
       style="fill:#dbe2e3;fill-opacity:1;stroke:none;stroke-width:0.781353"
       id="ellipse986"
       cx="418.3569"
       cy="159.54137"
       rx="17.842287"
       ry="16.283371" />
    <ellipse
       style="fill:#dbe2e3;fill-opacity:1;stroke:none;stroke-width:0.781353"
       id="ellipse988"
       cx="445.04205"
       cy="165.23346"
       rx="17.842287"
       ry="16.283371" />
    <g
       id="g1012">
      <path
         id="ellipse995"
         style="fill:#dbe2e3;fill-opacity:1;stroke:none"
         d="M 799.5 58.451172 A 17.842287 16.283371 0 0 0 784.78906 74.480469 A 17.842287 16.283371 0 0 0 784.85938 74.544922 A 31.324732 18.619339 0 0 0 759.39062 89.683594 A 31.324732 18.619339 0 0 0 790.71484 108.30469 A 31.324732 18.619339 0 0 0 799.5 107.55664 L 799.5 58.451172 z " />
      <ellipse
         style="fill:#dbe2e3;fill-opacity:1;stroke:none"
         id="ellipse997"
         cx="-660.00323"
         cy="395.76849"
         rx="22.822071"
         ry="15.882605"
         transform="matrix(-0.90563136,0.42406585,0.42406585,0.90563136,0,0)" />
    </g>
  </g>
</svg>
