<?xml version="1.0" encoding="UTF-8" standalone="no"?>
<svg
   xmlns:dc="http://purl.org/dc/elements/1.1/"
   xmlns:cc="http://creativecommons.org/ns#"
   xmlns:rdf="http://www.w3.org/1999/02/22-rdf-syntax-ns#"
   xmlns:svg="http://www.w3.org/2000/svg"
   xmlns="http://www.w3.org/2000/svg"
   xmlns:sodipodi="http://sodipodi.sourceforge.net/DTD/sodipodi-0.dtd"
   xmlns:inkscape="http://www.inkscape.org/namespaces/inkscape"
   sodipodi:docname="GitHub-logo.svg"
   inkscape:version="1.0.1 (0767f8302a, 2020-10-17)"
   id="svg8"
   version="1.1"
   viewBox="0 0 200 200"
   height="200"
   width="200">
  <defs
     id="defs2" />
  <sodipodi:namedview
     inkscape:window-maximized="0"
     inkscape:window-y="0"
     inkscape:window-x="341"
     inkscape:window-height="993"
     inkscape:window-width="1457"
     inkscape:snap-global="false"
     units="px"
     showgrid="true"
     inkscape:document-rotation="0"
     inkscape:current-layer="layer1"
     inkscape:document-units="px"
     inkscape:cy="96.101308"
     inkscape:cx="97.666456"
     inkscape:zoom="2.8"
     inkscape:pageshadow="2"
     inkscape:pageopacity="1"
     borderopacity="1.0"
     bordercolor="#666666"
     pagecolor="#e2c6d9"
     id="base"
     width="200in">
    <inkscape:grid
       spacingy="10"
       spacingx="10"
       id="grid3409"
       type="xygrid" />
  </sodipodi:namedview>
  <metadata
     id="metadata5">
    <rdf:RDF>
      <cc:Work
         rdf:about="">
        <dc:format>image/svg+xml</dc:format>
        <dc:type
           rdf:resource="http://purl.org/dc/dcmitype/StillImage" />
        <dc:title></dc:title>
      </cc:Work>
    </rdf:RDF>
  </metadata>
  <g
     id="layer1"
     inkscape:groupmode="layer"
     inkscape:label="Layer 1">
    <ellipse
       style="fill:#ffffff;stroke:none;stroke-width:0;stroke-miterlimit:4;stroke-dasharray:none;stroke-dashoffset:0"
       id="path1526"
       cx="100.35101"
       cy="101.11384"
       rx="76.906815"
       ry="76.353973" />
    <path
       id="path3411"
       d="M 99.818132,23.442382 A 77.704333,77.704333 0 0 0 22.296,101.14754 77.704333,77.704333 0 0 0 81.263042,176.55767 v -8.6193 c -13.85607,-7.36404 -10.23966,-20.50156 -21.41099,-24.14954 -3.60917,-1.17857 -10.71745,-2.06523 -11.968,-2.12608 -4.02144,-0.19571 -4.30838,-4.65238 -0.54208,-6.07553 3.21749,-1.21577 10.84529,-1.10046 16.6848,0.98091 10.16103,3.62167 9.71014,13.27071 17.23627,17.01334 v -0.63595 c 0,-7.18226 4.00178,-13.38996 9.90528,-16.53696 a 42.654986,36.044802 0 0 1 -33.82485,-35.26102 42.654986,36.044802 0 0 1 2.63061,-12.45844 c -4.97101,-2.08537 -8.19689,-20.744397 -4.12544,-24.203515 3.52034,-2.990891 17.1375,1.421587 21.52363,6.106026 a 42.654986,36.044802 0 0 1 22.62655,-5.488854 42.654986,36.044802 0 0 1 21.237338,4.784854 c 3.04041,-3.830603 12.68019,-7.64225 18.40725,-7.563308 1.53338,0.02114 2.78614,0.320477 3.55521,0.973867 3.98047,3.381838 0.98409,21.29863 -3.79691,24.04629 a 42.654986,36.044802 0 0 1 3.25247,13.80308 42.654986,36.044802 0 0 1 -33.8225,35.26336 c 5.90206,3.14744 9.90528,9.35343 9.90528,16.53462 v 23.61215 A 77.704333,77.704333 0 0 0 177.704,101.14754 77.704333,77.704333 0 0 0 99.998822,23.442382 a 77.704333,77.704333 0 0 0 -0.18069,0 z"
       style="fill:#000000;stroke-width:6.19187" />
  </g>
</svg>
