<?xml version="1.0" encoding="UTF-8" standalone="no"?>
<svg
   xmlns:dc="http://purl.org/dc/elements/1.1/"
   xmlns:cc="http://creativecommons.org/ns#"
   xmlns:rdf="http://www.w3.org/1999/02/22-rdf-syntax-ns#"
   xmlns:svg="http://www.w3.org/2000/svg"
   xmlns="http://www.w3.org/2000/svg"
   xmlns:sodipodi="http://sodipodi.sourceforge.net/DTD/sodipodi-0.dtd"
   xmlns:inkscape="http://www.inkscape.org/namespaces/inkscape"
   sodipodi:docname="GitHub-logo.svg"
   inkscape:version="1.0 (6e3e5246a0, 2020-05-07)"
   id="svg8"
   version="1.1"
   viewBox="0 0 150 150"
   height="150"
   width="150">
  <defs
     id="defs2" />
  <sodipodi:namedview
     inkscape:window-maximized="0"
     inkscape:window-y="18"
     inkscape:window-x="341"
     inkscape:window-height="993"
     inkscape:window-width="1457"
     inkscape:snap-global="false"
     units="px"
     showgrid="true"
     inkscape:document-rotation="0"
     inkscape:current-layer="layer1"
     inkscape:document-units="px"
     inkscape:cy="81.350912"
     inkscape:cx="74.155053"
     inkscape:zoom="3.959798"
     inkscape:pageshadow="2"
     inkscape:pageopacity="0.0"
     borderopacity="1.0"
     bordercolor="#666666"
     pagecolor="#ffffff"
     id="base">
    <inkscape:grid
       spacingy="10"
       spacingx="10"
       id="grid3409"
       type="xygrid" />
  </sodipodi:namedview>
  <metadata
     id="metadata5">
    <rdf:RDF>
      <cc:Work
         rdf:about="">
        <dc:format>image/svg+xml</dc:format>
        <dc:type
           rdf:resource="http://purl.org/dc/dcmitype/StillImage" />
        <dc:title></dc:title>
      </cc:Work>
    </rdf:RDF>
  </metadata>
  <g
     id="layer1"
     inkscape:groupmode="layer"
     inkscape:label="Layer 1">
    <path
       id="path3411"
       d="M 75.085938,10.615234 A 64.673126,64.673126 0 0 0 10.564453,75.289062 64.673126,64.673126 0 0 0 59.642578,138.05273 v -7.17382 c -11.532375,-6.12908 -8.522448,-17.0634 -17.820312,-20.09961 -3.003902,-0.98092 -8.92011,-1.71888 -9.960938,-1.76953 -3.347039,-0.16289 -3.585852,-3.87216 -0.451172,-5.05665 2.677911,-1.01188 9.02651,-0.91591 13.886719,0.81641 8.456996,3.01431 8.081721,11.04518 14.345703,14.16016 v -0.5293 c 0,-5.97777 3.330672,-11.14443 8.244141,-13.76367 A 35.50164,30 0 0 1 39.734375,75.289062 35.50164,30 0 0 1 41.923828,64.919922 c -4.137357,-1.735651 -6.822252,-17.265515 -3.433594,-20.144531 2.92997,-2.489311 14.263497,1.183184 17.914063,5.082031 a 35.50164,30 0 0 1 18.832031,-4.56836 35.50164,30 0 0 1 17.675781,3.982422 c 2.530527,-3.188201 10.553691,-6.360626 15.320311,-6.294922 1.27623,0.01759 2.3189,0.266732 2.95899,0.810547 3.31294,2.814695 0.81906,17.7268 -3.16016,20.013672 a 35.50164,30 0 0 1 2.70703,11.488281 35.50164,30 0 0 1 -28.150389,29.349608 c 4.91227,2.61961 8.24414,7.78484 8.24414,13.76172 v 19.65234 A 64.673126,64.673126 0 0 0 139.91016,75.289062 64.673126,64.673126 0 0 0 75.236328,10.615234 a 64.673126,64.673126 0 0 0 -0.15039,0 z"
       style="fill:#000000;stroke-width:5.15348" />
    <path
       id="path3465"
       d="m 72.532449,139.81878 c -3.842685,-0.20554 -8.229559,-0.79187 -11.294643,-1.50957 l -1.5625,-0.36587 v -3.61276 -3.61276 l -0.580357,-0.27788 c -1.025862,-0.49118 -3.40528,-2.3713 -4.53358,-3.58224 -1.574152,-1.68944 -2.730677,-3.52663 -4.550318,-7.22835 -2.546236,-5.17985 -3.99082,-7.01655 -6.483898,-8.24389 -1.887491,-0.92921 -5.802319,-1.80039 -10.548275,-2.34736 -2.167669,-0.24982 -2.828456,-0.50569 -3.298994,-1.27747 -0.602462,-0.98816 -0.453413,-1.84879 0.496586,-2.86737 2.141125,-2.29571 11.780866,-1.85252 16.828804,0.77371 1.537198,0.79974 2.836918,1.84487 4.024575,3.23625 0.860572,1.00818 1.251725,1.57017 3.329895,4.78416 1.61877,2.50352 2.745475,3.7743 4.154498,4.68576 l 1.071079,0.69285 0.223589,-1.93037 c 0.256168,-2.21164 0.735048,-3.94901 1.514766,-5.49551 1.279125,-2.53705 2.995298,-4.50464 5.306279,-6.08367 0.695541,-0.47524 1.203232,-0.91628 1.1282,-0.98009 -0.07503,-0.0638 -0.796618,-0.25308 -1.603525,-0.42061 -9.266575,-1.92388 -17.903813,-7.828161 -22.467742,-15.358608 -4.19468,-6.921186 -4.988569,-15.49383 -2.10455,-22.725548 l 0.43786,-1.097941 -0.880946,-0.824023 c -1.075753,-1.00624 -1.794018,-2.318061 -2.618817,-4.782935 -1.905888,-5.695663 -1.930189,-12.386683 -0.05225,-14.38566 0.480788,-0.511775 1.882689,-0.936498 3.091139,-0.936498 3.754016,0 10.218823,2.32443 13.60432,4.891451 l 1.291912,0.97958 1.66607,-0.778559 c 8.603243,-4.020317 18.914852,-4.826329 28.250107,-2.208182 1.871355,0.524837 4.894509,1.642558 6.027761,2.228585 0.513161,0.265366 0.544118,0.256663 1.089489,-0.306278 2.801618,-2.891873 9.877807,-5.701305 14.352847,-5.698459 1.96369,0.0012 2.68285,0.199324 3.3963,0.935424 1.11367,1.149011 1.5618,3.660345 1.29063,7.232746 -0.37937,4.997842 -1.98078,9.879497 -3.86198,11.772627 l -0.74066,0.745367 0.42747,0.92266 c 0.61513,1.327686 1.40879,3.776666 1.79313,5.533038 0.26058,1.190762 0.33216,2.26825 0.33216,5 0,2.73175 -0.0716,3.809237 -0.33216,5 -2.5331,11.575657 -12.056905,20.496553 -25.363889,23.758233 -1.168539,0.28642 -2.15071,0.54686 -2.182605,0.57875 -0.0319,0.0319 0.482218,0.41235 1.142473,0.84545 2.542909,1.66805 4.829932,4.50907 5.948273,7.38916 0.992661,2.55642 1.055761,3.43896 1.055761,14.76634 v 10.32687 l -0.669643,0.17528 c -0.368303,0.0964 -1.513393,0.33545 -2.544643,0.53122 -5.092662,0.96681 -10.586123,1.38905 -15,1.15295 z"
       style="fill:#ffaaaa;fill-opacity:1;stroke:none;stroke-width:0.853768" />
  </g>
</svg>
