<?xml version="1.0" encoding="UTF-8" standalone="no"?>
<svg
   xmlns:dc="http://purl.org/dc/elements/1.1/"
   xmlns:cc="http://creativecommons.org/ns#"
   xmlns:rdf="http://www.w3.org/1999/02/22-rdf-syntax-ns#"
   xmlns:svg="http://www.w3.org/2000/svg"
   xmlns="http://www.w3.org/2000/svg"
   xmlns:xlink="http://www.w3.org/1999/xlink"
   xmlns:sodipodi="http://sodipodi.sourceforge.net/DTD/sodipodi-0.dtd"
   xmlns:inkscape="http://www.inkscape.org/namespaces/inkscape"
   width="200"
   height="200"
   viewBox="0 0 200 200"
   version="1.1"
   id="svg8"
   inkscape:version="1.0.1 (0767f8302a, 2020-10-17)"
   sodipodi:docname="Instagram-logo.svg">
  <defs
     id="defs2">
    <linearGradient
       inkscape:collect="always"
       id="linearGradient889">
      <stop
         style="stop-color:#d4c356;stop-opacity:1"
         offset="0"
         id="stop885" />
      <stop
         style="stop-color:#ff7f2a;stop-opacity:1"
         offset="0.23007014"
         id="stop895" />
      <stop
         style="stop-color:#ff5555;stop-opacity:1"
         offset="0.57410568"
         id="stop901" />
      <stop
         style="stop-color:#5b6cb2;stop-opacity:1"
         offset="1"
         id="stop887" />
    </linearGradient>
    <radialGradient
       inkscape:collect="always"
       xlink:href="#linearGradient889"
       id="radialGradient899"
       cx="78.260361"
       cy="273.77515"
       fx="78.260361"
       fy="273.77515"
       r="124.85547"
       gradientTransform="matrix(0.83028477,-1.1682895,0.79015288,0.56148394,-215.59786,113.86809)"
       gradientUnits="userSpaceOnUse" />
  </defs>
  <sodipodi:namedview
     id="base"
     pagecolor="#ffffff"
     bordercolor="#666666"
     borderopacity="1.0"
     inkscape:pageopacity="0.0"
     inkscape:pageshadow="2"
     inkscape:zoom="0.98994949"
     inkscape:cx="-44.069464"
     inkscape:cy="126.86213"
     inkscape:document-units="px"
     inkscape:current-layer="layer1"
     inkscape:document-rotation="0"
     showgrid="false"
     units="px"
     showguides="true"
     inkscape:guide-bbox="true"
     inkscape:window-width="1920"
     inkscape:window-height="993"
     inkscape:window-x="0"
     inkscape:window-y="0"
     inkscape:window-maximized="1">
    <sodipodi:guide
       position="-190.42775,224.71595"
       orientation="0,-1"
       id="guide839" />
    <sodipodi:guide
       position="-234.56763,74.588884"
       orientation="0,-1"
       id="guide841" />
    <sodipodi:guide
       position="74.478498,442.33437"
       orientation="1,0"
       id="guide843" />
    <sodipodi:guide
       position="225.17417,433.86666"
       orientation="1,0"
       id="guide845" />
  </sodipodi:namedview>
  <metadata
     id="metadata5">
    <rdf:RDF>
      <cc:Work
         rdf:about="">
        <dc:format>image/svg+xml</dc:format>
        <dc:type
           rdf:resource="http://purl.org/dc/dcmitype/StillImage" />
        <dc:title></dc:title>
      </cc:Work>
    </rdf:RDF>
  </metadata>
  <g
     inkscape:label="Layer 1"
     inkscape:groupmode="layer"
     id="layer1">
    <path
       id="rect835"
       style="fill:url(#radialGradient899);fill-opacity:1;stroke:none;stroke-width:2.03515"
       d="m 39.00812,20.245562 c -10.4425,0 -18.849357,8.406857 -18.849357,18.849357 V 160.90507 c 0,10.4425 8.406857,18.84937 18.849357,18.84937 h 121.98377 c 10.44249,0 18.84935,-8.40687 18.84935,-18.84937 V 39.094919 c 0,-10.4425 -8.40686,-18.849357 -18.84935,-18.849357 z m 20.842703,15.336023 h 80.807937 c 13.11604,0 23.67535,10.559317 23.67535,23.675351 v 80.931584 c 0,13.11604 -10.55931,23.67535 -23.67535,23.67535 H 59.850823 c -13.116036,0 -23.675352,-10.55931 -23.675352,-23.67535 V 59.256936 c 0,-13.116035 10.559316,-23.675351 23.675352,-23.675351 z m 10.501282,9.435918 c -14.150983,0 -25.54255,11.392813 -25.54255,25.543804 v 58.877383 c 0,14.15098 11.391567,25.5438 25.54255,25.5438 h 59.295805 c 14.15098,0 25.54254,-11.39282 25.54254,-25.5438 V 70.561307 c 0,-14.150991 -11.39156,-25.543804 -25.54254,-25.543804 z m 67.575175,8.313102 a 7.1114062,7.1114062 0 0 1 0.001,0 7.1114062,7.1114062 0 0 1 0.0525,0 7.1114062,7.1114062 0 0 1 7.11159,7.111598 7.1114062,7.1114062 0 0 1 -7.11159,7.111598 7.1114062,7.1114062 0 0 1 -7.11161,-7.111598 7.1114062,7.1114062 0 0 1 7.05789,-7.111598 z m -37.951003,2.742724 a 43.049966,43.926806 0 0 1 0.001,0 43.049966,43.926806 0 0 1 0.0225,0 A 43.049966,43.926806 0 0 1 143.0503,100.00063 43.049966,43.926806 0 0 1 99.999777,143.92667 43.049966,43.926806 0 0 1 56.949252,100.00063 43.049966,43.926806 0 0 1 99.976047,56.073329 Z m 0.0212,20.935125 a 22.991713,22.991713 0 0 0 -22.989673,22.992176 22.991713,22.991713 0 0 0 22.992163,22.99091 22.991713,22.991713 0 0 0 22.992173,-22.99091 22.991713,22.991713 0 0 0 -22.992173,-22.992176 22.991713,22.991713 0 0 0 -0.003,0 z" />
  </g>
</svg>
