<?xml version="1.0" encoding="UTF-8" standalone="no"?>
<svg
   xmlns:dc="http://purl.org/dc/elements/1.1/"
   xmlns:cc="http://creativecommons.org/ns#"
   xmlns:rdf="http://www.w3.org/1999/02/22-rdf-syntax-ns#"
   xmlns:svg="http://www.w3.org/2000/svg"
   xmlns="http://www.w3.org/2000/svg"
   xmlns:xlink="http://www.w3.org/1999/xlink"
   xmlns:sodipodi="http://sodipodi.sourceforge.net/DTD/sodipodi-0.dtd"
   xmlns:inkscape="http://www.inkscape.org/namespaces/inkscape"
   width="300"
   height="300"
   viewBox="0 0 300 300"
   version="1.1"
   id="svg8"
   inkscape:version="1.0.1 (3bc2e813f5, 2020-09-07)"
   sodipodi:docname="Instagram-logo.svg">
  <defs
     id="defs2">
    <linearGradient
       inkscape:collect="always"
       id="linearGradient889">
      <stop
         style="stop-color:#d4c356;stop-opacity:1"
         offset="0"
         id="stop885" />
      <stop
         style="stop-color:#ff7f2a;stop-opacity:1"
         offset="0.23007014"
         id="stop895" />
      <stop
         style="stop-color:#ff5555;stop-opacity:1"
         offset="0.57410568"
         id="stop901" />
      <stop
         style="stop-color:#5b6cb2;stop-opacity:1"
         offset="1"
         id="stop887" />
    </linearGradient>
    <radialGradient
       inkscape:collect="always"
       xlink:href="#linearGradient889"
       id="radialGradient899"
       cx="78.260361"
       cy="273.77515"
       fx="78.260361"
       fy="273.77515"
       r="124.85547"
       gradientTransform="matrix(1.2983966,-1.8269673,1.2356385,0.87804675,-344.39029,171.2523)"
       gradientUnits="userSpaceOnUse" />
  </defs>
  <sodipodi:namedview
     id="base"
     pagecolor="#ffffff"
     bordercolor="#666666"
     borderopacity="1.0"
     inkscape:pageopacity="0.0"
     inkscape:pageshadow="2"
     inkscape:zoom="0.98994949"
     inkscape:cx="-44.069464"
     inkscape:cy="126.86213"
     inkscape:document-units="px"
     inkscape:current-layer="layer1"
     inkscape:document-rotation="0"
     showgrid="false"
     units="px"
     showguides="true"
     inkscape:guide-bbox="true"
     inkscape:window-width="1920"
     inkscape:window-height="993"
     inkscape:window-x="0"
     inkscape:window-y="0"
     inkscape:window-maximized="1">
    <sodipodi:guide
       position="-190.42775,224.71595"
       orientation="0,-1"
       id="guide839" />
    <sodipodi:guide
       position="-234.56763,74.588884"
       orientation="0,-1"
       id="guide841" />
    <sodipodi:guide
       position="74.478498,442.33437"
       orientation="1,0"
       id="guide843" />
    <sodipodi:guide
       position="225.17417,433.86666"
       orientation="1,0"
       id="guide845" />
  </sodipodi:namedview>
  <metadata
     id="metadata5">
    <rdf:RDF>
      <cc:Work
         rdf:about="">
        <dc:format>image/svg+xml</dc:format>
        <dc:type
           rdf:resource="http://purl.org/dc/dcmitype/StillImage" />
        <dc:title></dc:title>
      </cc:Work>
    </rdf:RDF>
  </metadata>
  <g
     inkscape:label="Layer 1"
     inkscape:groupmode="layer"
     id="layer1">
    <path
       id="rect835"
       style="fill:url(#radialGradient899);fill-opacity:1;stroke:none;stroke-width:3.18256"
       d="M 53.761719 24.845703 C 37.431771 24.845703 24.285156 37.992318 24.285156 54.322266 L 24.285156 244.80859 C 24.285156 261.13853 37.431771 274.28516 53.761719 274.28516 L 244.51953 274.28516 C 260.84947 274.28516 273.99609 261.13853 273.99609 244.80859 L 273.99609 54.322266 C 273.99609 37.992318 260.84947 24.845703 244.51953 24.845703 L 53.761719 24.845703 z M 86.355469 48.828125 L 212.72266 48.828125 C 233.23347 48.828125 249.74609 65.340751 249.74609 85.851562 L 249.74609 212.41211 C 249.74609 232.92292 233.23347 249.43555 212.72266 249.43555 L 86.355469 249.43555 C 65.844656 249.43555 49.332031 232.92292 49.332031 212.41211 L 49.332031 85.851562 C 49.332031 65.34075 65.844656 48.828125 86.355469 48.828125 z M 102.77734 63.583984 C 80.64808 63.583984 62.833984 81.400027 62.833984 103.5293 L 62.833984 195.60156 C 62.833984 217.73082 80.64808 235.54686 102.77734 235.54688 L 195.50391 235.54688 C 217.63317 235.54688 235.44727 217.73082 235.44727 195.60156 L 235.44727 103.5293 C 235.44727 81.400027 217.63317 63.583984 195.50391 63.583984 L 102.77734 63.583984 z M 208.45117 76.583984 A 11.120794 11.120794 0 0 1 208.45312 76.583984 A 11.120794 11.120794 0 0 1 208.53516 76.583984 A 11.120794 11.120794 0 0 1 219.65625 87.705078 A 11.120794 11.120794 0 0 1 208.53516 98.826172 A 11.120794 11.120794 0 0 1 197.41406 87.705078 A 11.120794 11.120794 0 0 1 208.45117 76.583984 z M 149.10352 80.873047 A 67.321396 68.692596 0 0 1 149.10547 80.873047 A 67.321396 68.692596 0 0 1 149.14062 80.873047 A 67.321396 68.692596 0 0 1 216.46289 149.56641 A 67.321396 68.692596 0 0 1 149.14062 218.25781 A 67.321396 68.692596 0 0 1 81.818359 149.56641 A 67.321396 68.692596 0 0 1 149.10352 80.873047 z M 149.13672 113.61133 A 35.954365 35.954365 0 0 0 113.18555 149.56641 A 35.954365 35.954365 0 0 0 149.14062 185.51953 A 35.954365 35.954365 0 0 0 185.0957 149.56641 A 35.954365 35.954365 0 0 0 149.14062 113.61133 A 35.954365 35.954365 0 0 0 149.13672 113.61133 z " />
  </g>
</svg>
