<?xml version="1.0" encoding="UTF-8" standalone="no"?>
<svg
   xmlns:dc="http://purl.org/dc/elements/1.1/"
   xmlns:cc="http://creativecommons.org/ns#"
   xmlns:rdf="http://www.w3.org/1999/02/22-rdf-syntax-ns#"
   xmlns:svg="http://www.w3.org/2000/svg"
   xmlns="http://www.w3.org/2000/svg"
   xmlns:sodipodi="http://sodipodi.sourceforge.net/DTD/sodipodi-0.dtd"
   xmlns:inkscape="http://www.inkscape.org/namespaces/inkscape"
   width="500"
   height="300"
   viewBox="0 0 500 300.00001"
   version="1.1"
   id="svg5236"
   inkscape:version="1.0 (b51213c273, 2020-08-10)"
   sodipodi:docname="A-Hiking-Club-Logo.svg">
  <defs
     id="defs5230" />
  <sodipodi:namedview
     id="base"
     pagecolor="#ffffff"
     bordercolor="#666666"
     borderopacity="1.0"
     inkscape:pageopacity="0.0"
     inkscape:pageshadow="2"
     inkscape:zoom="0.98994949"
     inkscape:cx="241.39097"
     inkscape:cy="239.01501"
     inkscape:document-units="px"
     inkscape:current-layer="layer1"
     inkscape:document-rotation="0"
     showgrid="false"
     scale-x="1"
     units="px"
     inkscape:window-width="1457"
     inkscape:window-height="993"
     inkscape:window-x="336"
     inkscape:window-y="45"
     inkscape:window-maximized="0"
     inkscape:snap-global="false" />
  <metadata
     id="metadata5233">
    <rdf:RDF>
      <cc:Work
         rdf:about="">
        <dc:format>image/svg+xml</dc:format>
        <dc:type
           rdf:resource="http://purl.org/dc/dcmitype/StillImage" />
        <dc:title></dc:title>
      </cc:Work>
    </rdf:RDF>
  </metadata>
  <g
     inkscape:label="Layer 1"
     inkscape:groupmode="layer"
     id="layer1">
    <path
       id="rect6001"
       style="fill:#000000;stroke:#000000;stroke-width:3;stroke-opacity:1;fill-opacity:1;stroke-miterlimit:4;stroke-dasharray:none"
       d="M 224.22852 108.32617 C 220.64807 108.26084 216.14644 109.31969 208.07227 112.33789 C 201.83021 114.67123 194.09613 118.29608 185.80273 122.35352 L 185.80273 186.93945 C 195.88273 187.65945 198.76172 189.96406 198.76172 197.16406 L 198.76172 226.9707 L 164.05859 226.9707 L 164.05859 197.16406 C 164.05859 189.96406 166.93758 187.65945 177.01758 186.93945 L 177.01758 126.6875 C 163.13612 133.60357 148.43171 141.0405 136.26367 145.82617 C 133.76337 146.80954 131.15975 147.85802 128.49023 148.94336 L 128.49023 186.93945 C 138.13823 187.80345 140.73047 189.96406 140.73047 197.16406 L 140.73047 266.85938 C 140.73047 273.91537 138.57023 275.78798 128.49023 277.08398 L 128.49023 280.68359 L 177.01758 280.68359 L 177.01758 277.08398 C 166.50558 275.93198 164.05859 273.91537 164.05859 266.85938 L 164.05859 233.74023 L 198.76172 233.74023 L 198.76172 266.85938 C 198.76172 273.91537 196.31473 275.93198 185.80273 277.08398 L 185.80273 280.68359 L 234.76172 280.68359 L 234.76172 277.08398 C 224.39372 275.78798 222.08984 273.91538 222.08984 266.85938 L 222.08984 197.16406 C 222.08984 189.96406 224.96972 187.65945 234.76172 186.93945 L 234.76172 111.02148 C 230.43468 109.56348 227.77965 108.39097 224.22852 108.32617 z M 239.70703 112.55664 L 239.70703 186.93945 C 250.21903 187.80345 252.52344 189.67606 252.52344 197.16406 L 252.52344 265.5625 C 252.52344 274.2025 250.65192 275.93198 239.41992 277.08398 L 239.41992 280.68359 L 273.11523 280.68359 L 273.11523 277.08398 C 261.30723 276.21998 258.57227 273.48413 258.57227 262.82812 L 258.57227 195.14648 L 294.85938 280.68359 L 298.74805 280.68359 L 335.03516 192.98828 L 335.03516 266.2832 C 335.03516 274.3472 333.0207 276.07598 322.2207 277.08398 L 322.2207 280.68359 L 370.02734 280.68359 L 370.02734 277.08398 C 358.79534 275.64398 357.35547 274.05994 357.35547 263.83594 L 357.35547 200.1875 C 357.35547 189.8195 359.51534 187.65945 370.02734 186.93945 L 370.02734 168.72852 C 356.39244 167.92861 344.57888 164.99693 333.75781 161.2207 L 333.74023 183.33984 L 304.93945 251.30664 L 276.14062 183.33984 L 276.20508 136.26172 C 272.09121 134.13933 268.35413 132.00065 265.31836 129.82812 C 256.17513 123.28484 252.97589 116.45857 239.70703 112.55664 z M 280.88281 138.5918 L 280.88281 182.93945 L 329.19141 182.93945 L 329.19141 159.5625 C 320.64457 156.33136 312.66891 152.66932 304.83398 149.25781 C 296.65184 145.69512 288.30867 142.16231 280.88281 138.5918 z M 121.38672 151.85156 C 97.083673 161.85056 67.516582 174.26163 39.738281 180.10742 L 39.738281 186.93945 C 49.674281 187.51545 52.412109 189.67606 52.412109 197.16406 L 52.412109 266.85938 C 52.412109 274.34737 50.394281 275.93198 39.738281 277.08398 L 39.738281 280.68359 L 91.580078 280.68359 L 91.580078 277.08398 C 78.332078 276.50798 75.738281 274.77938 75.738281 266.85938 L 75.738281 233.30664 C 90.426281 233.59464 95.755484 238.92295 97.771484 255.62695 L 101.37109 255.62695 L 101.37109 206.95508 L 97.771484 206.95508 C 95.179484 223.37108 90.138281 228.41211 75.738281 228.41211 L 75.738281 195.00391 C 75.738281 189.67591 77.611078 188.23633 84.955078 188.23633 C 98.203078 188.23633 106.70006 190.68266 111.16406 195.72266 C 114.33206 199.32266 115.91564 203.2112 117.93164 212.2832 L 121.38672 212.2832 L 121.38672 151.85156 z M 375.91016 168.93359 L 376.30273 232.73047 C 376.30273 232.73047 397.4713 283.41992 427.2793 283.41992 C 437.5033 283.41992 445.99992 280.97058 453.91992 275.64258 C 458.52792 272.47458 461.69578 269.59453 468.17578 262.39453 L 463.85547 258.79492 C 455.35947 267.72292 450.75131 271.18002 443.69531 273.91602 C 439.51931 275.64402 434.76833 276.50781 430.73633 276.50781 C 421.23233 276.50781 412.16038 271.46652 407.98438 263.97852 C 403.80838 256.34652 401.79102 245.98008 401.79102 231.58008 C 401.79102 201.77208 411.00711 185.93164 428.28711 185.93164 C 435.05511 185.93164 441.24745 188.52409 447.43945 193.99609 C 453.63145 199.61209 456.94438 204.36264 461.98438 215.30664 L 465.58398 215.30664 L 465.58398 186.23242 C 437.40132 187.14593 389.70366 168.95117 377.47852 168.95117 C 376.95106 168.95117 376.43231 168.93995 375.91016 168.93359 z " />
    <path
       id="path6010"
       style="fill:#ffffff;stroke:#000000;stroke-width:2;stroke-linecap:butt;stroke-linejoin:miter;stroke-opacity:1;fill-opacity:1;stroke-miterlimit:4;stroke-dasharray:none"
       d="M 224.22852 108.32617 C 220.64807 108.26084 216.14644 109.31969 208.07227 112.33789 C 201.83021 114.67123 194.09613 118.29608 185.80273 122.35352 L 185.80273 135.89844 C 192.40777 133.30762 198.99948 127.56999 200.64062 127.69141 C 203.60479 127.91071 196.41864 137.68254 199.07812 139.00977 C 204.46544 141.69832 217.86353 125.98947 220.90625 122.88086 C 221.08935 122.6938 231.60085 137.51125 234.68945 135.4082 C 234.7176 135.38904 234.73511 135.36549 234.76172 135.3457 L 234.76172 131.53711 C 232.16097 126.82081 223.94774 120.152 228.13867 119.6543 C 230.42029 119.38334 232.62768 122.33264 234.76172 125.59375 L 234.76172 111.02148 C 230.43468 109.56348 227.77965 108.39097 224.22852 108.32617 z M 239.70703 112.55664 L 239.70703 132.47852 C 240.11517 132.8673 240.52171 133.19543 240.92383 133.39648 C 243.86431 134.86672 236.5842 114.82581 243.93945 124.63281 C 246.3165 127.80221 250.05892 132.93357 254.04102 134.23047 C 257.7909 135.45175 247.21773 117.5325 249.58398 120.6875 C 252.28963 124.29504 267.82643 133.34235 273.18359 138.21484 C 274.588 139.49219 274.09932 137.6871 272.20508 134.10742 C 269.67139 132.69215 267.33039 131.26803 265.31836 129.82812 C 256.17513 123.28484 252.97589 116.45857 239.70703 112.55664 z M 177.01758 126.6875 C 176.72619 126.83268 176.42685 126.98135 176.13477 127.12695 C 173.14389 132.84161 170.35081 138.39766 170.68555 138.85156 C 170.71808 138.89566 173.94418 136.79802 177.01758 135 L 177.01758 126.6875 z " />
  </g>
</svg>
