<?xml version="1.0" encoding="UTF-8" standalone="no"?>
<svg
   xmlns:dc="http://purl.org/dc/elements/1.1/"
   xmlns:cc="http://creativecommons.org/ns#"
   xmlns:rdf="http://www.w3.org/1999/02/22-rdf-syntax-ns#"
   xmlns:svg="http://www.w3.org/2000/svg"
   xmlns="http://www.w3.org/2000/svg"
   xmlns:xlink="http://www.w3.org/1999/xlink"
   xmlns:sodipodi="http://sodipodi.sourceforge.net/DTD/sodipodi-0.dtd"
   xmlns:inkscape="http://www.inkscape.org/namespaces/inkscape"
   width="500"
   height="500"
   viewBox="0 0 500 500"
   version="1.1"
   id="svg8"
   inkscape:version="1.0.1 (3bc2e813f5, 2020-09-07)"
   sodipodi:docname="The-Northern-Pacific-Railway-Logo.svg">
  <defs
     id="defs2" />
  <sodipodi:namedview
     id="base"
     pagecolor="#ffffff"
     bordercolor="#666666"
     borderopacity="1.0"
     inkscape:pageopacity="0.0"
     inkscape:pageshadow="2"
     inkscape:zoom="1.4"
     inkscape:cx="553.21293"
     inkscape:cy="242.30011"
     inkscape:document-units="px"
     inkscape:current-layer="layer2"
     inkscape:document-rotation="0"
     showgrid="false"
     units="px"
     inkscape:window-width="1457"
     inkscape:window-height="993"
     inkscape:window-x="249"
     inkscape:window-y="9"
     inkscape:window-maximized="0" />
  <metadata
     id="metadata5">
    <rdf:RDF>
      <cc:Work
         rdf:about="">
        <dc:format>image/svg+xml</dc:format>
        <dc:type
           rdf:resource="http://purl.org/dc/dcmitype/StillImage" />
        <dc:title></dc:title>
      </cc:Work>
    </rdf:RDF>
  </metadata>
  <g
     inkscape:groupmode="layer"
     id="layer2"
     inkscape:label="Photograph"
     style="display:inline"
     sodipodi:insensitive="true">
    <image
       sodipodi:absref="/home/quintin/Downloads/NP_CarEnd_HighRes_Cropped2.png"
       xlink:href="../Downloads/NP_CarEnd_HighRes_Cropped2.png"
       style="display:inline"
       y="-0.85409409"
       x="500.57584"
       id="image927"
       preserveAspectRatio="none"
       height="501.31339"
       width="501.31339" />
  </g>
  <g
     inkscape:label="Layer 1"
     inkscape:groupmode="layer"
     id="layer1"
     style="display:inline">
    <path
       style="fill:#000000;stroke-width:1.43232"
       d="M 500.57584,249.8026 V -0.85409409 h 250.6567 250.65666 V 249.8026 500.4593 H 751.23254 500.57584 Z m 275.7074,221.26912 c 51.56893,-7.77242 89.73418,-27.33649 124.62715,-63.88573 17.92334,-18.77412 35.37812,-43.33189 42.5207,-59.82394 30.50364,-70.43221 25.01631,-156.25591 -13.84351,-216.5172 -12.426,-19.26942 -38.90838,-47.192153 -58.72225,-61.916096 -17.84234,-13.258878 -46.67578,-26.832282 -72.3661,-34.066498 -11.02287,-3.103962 -14.95285,-3.430509 -41.5374,-3.451381 -53.2621,-0.04182 -81.83309,8.105893 -121.74754,34.719264 -36.75923,24.509607 -64.94575,60.454691 -82.81523,105.610801 -7.72739,19.52712 -8.53508,22.73116 -11.73459,46.55053 -6.29108,46.83519 -1.63921,83.21748 15.48907,121.14002 17.28682,38.27357 32.68967,59.4179 60.07283,82.46522 34.84883,29.33092 70.1053,44.70332 114.24363,49.81216 16.14212,1.86838 30.51572,1.66849 45.81324,-0.63715 z m -63.95181,-12.64293 c -14.17713,-6.3002 -19.5433,-24.48023 -12.00502,-40.67169 7.15026,-15.35804 25.12409,-21.00481 37.74893,-11.85943 6.3037,4.56639 10.9926,11.89357 9.72497,15.19693 -1.40952,3.67315 -7.14082,2.29875 -9.78432,-2.34635 -1.37634,-2.41848 -4.84118,-5.33647 -7.80893,-6.57647 -14.23731,-5.94873 -26.10492,7.92161 -21.87263,25.56379 1.96592,8.19487 7.37948,12.57806 15.54589,12.58703 3.87206,0.004 5.98707,-1.19914 10.27986,-5.84908 5.82686,-6.31164 10.31471,-7.03867 11.06598,-1.79273 0.51437,3.59174 -6.77482,12.50548 -12.75532,15.59811 -4.74836,2.45548 -14.78319,2.53016 -20.13941,0.14989 z m 47.66741,-1.29729 c -1.27718,-3.46159 -3.46252,-29.35346 -3.64301,-43.16231 -0.0851,-6.5131 0.45334,-8.78605 2.36954,-10.00199 5.25866,-3.33699 6.67888,1.18895 8.50872,27.11544 0.9464,13.40937 1.29844,25.48114 0.78232,26.82614 -1.36759,3.56387 -6.60313,3.0563 -8.01757,-0.77728 z m 22.74696,-2.86465 c -0.75283,-1.7725 -3.35817,-13.79374 -5.78966,-26.71386 -3.63665,-19.32404 -4.08712,-23.80197 -2.53941,-25.24348 1.03481,-0.9638 8.00466,-3.21393 15.48855,-5.0003 7.48389,-1.78637 15.34757,-4.1234 17.47484,-5.19341 4.74162,-2.385 9.2251,-2.50393 10.59884,-0.28116 1.472,2.38174 -3.97338,6.31241 -12.70421,9.1704 -4.12042,1.34879 -10.59399,4.00606 -14.38568,5.90505 -5.50213,2.75564 -6.80343,4.08924 -6.44545,6.60549 0.59232,4.16351 4.616,4.61815 15.71246,1.77537 7.85426,-2.01217 9.15494,-2.03174 11.02086,-0.16582 3.28685,3.28685 -0.0958,6.13272 -11.35445,9.55241 -5.36681,1.63011 -10.39101,3.72676 -11.16488,4.65922 -0.92896,1.11933 -0.74539,5.50553 0.54028,12.90917 1.07102,6.16757 1.59937,12.12049 1.17411,13.22871 -1.20616,3.14319 -6.10795,2.36689 -7.6262,-1.20779 z m -103.00875,-5.94193 c -0.91431,-1.10167 -1.51524,-4.18768 -1.33541,-6.85782 0.44926,-6.67089 -0.44441,-7.68392 -11.8421,-13.4237 -10.17756,-5.12534 -11.13536,-5.14281 -16.52376,-0.30156 -1.72417,1.54912 -4.56446,2.55976 -6.44545,2.2935 -7.05835,-0.99922 -3.71944,-5.7506 16.64118,-23.68095 21.24477,-18.70895 24.40816,-20.25069 30.84933,-15.03494 3.0955,2.50658 3.14278,2.95296 1.63063,15.39748 -0.85651,7.04884 -2.23215,18.7579 -3.05696,26.02015 -0.82482,7.26226 -1.87844,14.19113 -2.34135,15.39749 -1.05222,2.74201 -5.36841,2.85047 -7.57611,0.19035 z m 0.40492,-26.33515 c 0.38207,-0.61822 1.14791,-5.13004 1.70186,-10.02627 1.18652,-10.48747 0.17587,-11.04645 -8.10876,-4.4849 -6.79729,5.38356 -7.0391,8.68844 -0.92227,12.60576 5.11786,3.27758 6.2924,3.58292 7.32917,1.90541 z m 168.80227,2.19827 c -10.0819,-14.89293 -23.3925,-38.56828 -22.95988,-40.83836 0.71399,-3.74634 5.87681,-3.77003 9.24663,-0.0424 1.63197,1.80528 7.13363,10.69458 12.2259,19.75403 5.09226,9.05945 10.14007,17.86962 11.21736,19.57815 1.6195,2.56844 1.63321,3.49864 0.0791,5.37121 -3.00358,3.6191 -5.40487,2.68333 -9.80911,-3.82258 z m 16.15805,-15.95997 c -5.87823,-2.57549 -13.41218,-10.43887 -16.61504,-17.34156 -6.33759,-13.6585 -0.79427,-30.77922 12.14453,-37.50872 9.00582,-4.68395 23.80688,-1.37989 23.80688,5.31445 0,2.5346 -0.99162,2.83163 -9.45333,2.83163 -8.8411,0 -9.76874,0.3154 -14.32324,4.8699 -3.81239,3.81239 -4.86991,6.04006 -4.86991,10.25851 0,7.94342 5.81334,16.90681 13.3229,20.54212 8.38337,4.05831 10.50142,3.81387 16.18298,-1.86768 4.54923,-4.54924 4.8699,-5.48907 4.8699,-14.27285 0,-7.70447 0.48171,-9.66074 2.66679,-10.83016 7.48589,-4.00634 11.86598,12.62917 6.22319,23.63556 -6.89915,13.45689 -21.7214,19.72913 -33.95565,14.3688 z M 639.8409,403.11754 c -5.42773,-1.31933 -13.82883,-6.85448 -19.69192,-12.97425 -4.98094,-5.19896 -6.94314,-5.30303 -12.99232,-0.6891 -5.48247,4.18168 -6.74794,4.36614 -9.25228,1.34859 -1.59075,-1.91672 -0.0466,-4.057 10.92513,-15.14329 7.02774,-7.10108 15.8729,-15.53065 19.65591,-18.73236 8.11548,-6.86847 8.71647,-6.74698 22.22139,4.49194 10.25848,8.53718 13.15601,13.35809 13.14861,21.87661 -0.0115,13.53893 -11.35245,22.89965 -24.01452,19.82186 z m 11.48155,-14.54541 c 2.57303,-3.46228 2.618,-4.06844 0.59247,-7.98542 -2.86667,-5.54351 -13.13263,-14.76587 -16.43678,-14.76587 -1.4259,0 -4.4049,1.89169 -6.62,4.20376 -5.45411,5.69287 -4.18657,9.94478 5.16933,17.34019 8.4613,6.68828 12.987,7.0042 17.29498,1.20734 z m 70.11633,2.37773 c -22.75548,-5.19834 -47.67529,-17.77783 -63.40463,-32.00655 -21.20591,-19.18283 -38.94547,-51.52065 -45.20388,-82.40313 -4.9556,-24.45365 0.19119,-60.56155 12.32233,-86.44873 12.02491,-25.66047 35.20436,-51.40733 57.51643,-63.88705 19.42706,-10.86605 55.64376,-20.47251 71.42815,-18.94627 51.99745,5.02781 85.95167,24.00525 111.34618,62.23276 16.49399,24.8292 25.46758,70.96176 19.94049,102.51273 -4.44599,25.37957 -12.44572,44.80318 -25.87023,62.81377 -22.12918,29.68894 -49.43003,47.19247 -85.20884,54.63034 -15.68526,3.26074 -41.90643,4.00579 -52.866,1.50213 z M 597.25771,205.44274 c -19.75758,-7.29743 -38.46372,-15.62773 -39.58263,-17.62711 -1.61925,-2.89342 0.70244,-9.05087 4.06405,-10.77844 1.41632,-0.72785 11.06224,-1.73371 21.43538,-2.23523 28.1526,-1.3611 28.83803,-2.18592 10.4131,-12.53068 -19.759,-11.09378 -23.20268,-14.94668 -16.90409,-18.91279 1.83701,-1.15673 6.63151,0.92919 22.20103,9.65893 10.92191,6.12386 20.98597,12.13608 22.36458,13.36049 3.47892,3.08981 3.13028,8.45035 -0.80557,12.38619 -2.87241,2.87241 -5.29696,3.44385 -18.26213,4.30412 -17.62592,1.16952 -24.2601,2.18521 -24.2601,3.71419 0,0.61356 6.50202,3.85924 14.44892,7.21259 14.71937,6.21113 17.56923,8.67698 14.03534,12.14412 -1.67641,1.64475 -3.10345,1.53611 -9.14788,-0.69638 z m 291.63373,-4.69724 c -3.19922,-8.55184 -3.12303,-9.20813 1.88831,-16.26875 2.73512,-3.85358 7.36863,-10.39055 10.2967,-14.5266 2.92806,-4.13603 4.87002,-7.9738 4.31545,-8.52837 -0.55456,-0.55457 -6.44507,1.68805 -13.09002,4.98361 -12.04706,5.97473 -15.46539,6.4052 -17.09711,2.15302 -1.26278,-3.29075 2.58068,-6.79438 14.81338,-13.50364 5.99074,-3.28572 13.14815,-7.24686 15.90537,-8.80252 2.75723,-1.55566 7.52482,-4.14492 10.59465,-5.75392 l 5.58149,-2.92545 4.08669,4.57379 c 2.24768,2.51559 4.08668,5.15251 4.08668,5.85982 0,0.70733 -2.58759,4.40329 -5.75022,8.21328 -11.76243,14.17008 -22.89626,29.43942 -22.89626,31.40076 0,3.24705 4.66475,2.40013 20.36193,-3.69688 16.88498,-6.55836 20.57611,-7.01744 21.93739,-2.72842 1.24784,3.9316 -0.33628,5.33771 -9.57358,8.49788 -4.21304,1.44131 -14.42614,5.24285 -22.69579,8.44784 -17.39089,6.74006 -21.06089,7.15995 -22.76506,2.60455 z m -21.72349,-44.85992 c -1.56874,-1.89021 -1.14042,-3.71949 2.68927,-11.48571 2.50535,-5.08058 4.55518,-10.70578 4.55518,-12.50043 0,-1.90402 -2.31995,-5.52837 -5.57034,-8.70229 -6.22583,-6.07936 -8.64098,-5.82348 -14.42379,1.52817 -6.20692,7.89081 -12.94932,9.44938 -12.94932,2.99335 0,-2.91132 12.8156,-18.98701 27.52591,-34.528087 l 7.91925,-8.366485 4.48077,2.317095 c 6.44054,3.330533 20.66625,17.809207 23.52414,23.942447 5.95158,12.7725 0.0286,24.09921 -13.67606,26.15335 -7.17646,1.07565 -7.74611,1.59553 -15.44241,14.09334 -4.52913,7.35471 -5.76711,8.00796 -8.6326,4.55525 z m 27.71246,-32.26388 c 0.79127,-1.25668 1.04913,-3.83486 0.57301,-5.72929 -1.13676,-4.52312 -14.09431,-18.483826 -17.15564,-18.483826 -1.31286,0 -3.4935,1.688706 -4.84587,3.752666 -2.34096,3.57277 -2.32538,3.99929 0.32506,8.89681 3.16895,5.85561 14.27788,14.91081 17.51055,14.27333 1.18482,-0.23365 2.80161,-1.45301 3.59289,-2.70969 z m -284.80864,28.08236 c -7.63656,-3.84281 -12.23002,-9.66683 -15.05131,-19.08348 -3.22017,-10.74797 3.68194,-25.51478 14.55349,-31.13668 8.94418,-4.625212 25.04273,-1.628627 33.19372,6.17868 4.15636,3.98112 8.20219,15.00488 8.20219,22.34872 0,7.97798 -5.37615,16.40272 -13.40621,21.00831 -9.43807,5.41317 -17.68676,5.61852 -27.49188,0.68445 z m 21.73955,-7.55728 c 3.26678,-2.135 7.6894,-11.21908 7.69459,-15.80476 0.0119,-10.51255 -8.86777,-18.90717 -19.99966,-18.90717 -4.87869,0 -6.83781,0.83285 -10.05138,4.27299 -7.98312,8.54595 -6.74675,17.99796 3.53507,27.02552 4.03871,3.54604 6.42618,4.50491 11.17368,4.48766 3.32065,-0.0115 6.76211,-0.49547 7.6477,-1.07424 z m 29.80643,-18.62022 c -2.53395,-1.7464 -9.81962,-13.18311 -17.09448,-26.834138 -3.77839,-7.090004 -7.46809,-13.661121 -8.19934,-14.602483 -3.48718,-4.489187 -0.3712,-7.847393 16.07825,-17.328126 18.29404,-10.54387 24.09,-11.769137 31.09161,-6.572782 5.83187,4.328201 7.92733,11.719378 5.86077,20.672212 l -1.6602,7.192415 7.41958,7.512907 c 8.06136,8.162765 8.91702,10.335325 4.60903,11.702625 -3.62776,1.15141 -6.62676,-0.55775 -13.59378,-7.74722 -6.53096,-6.739487 -10.03551,-7.266177 -18.11892,-2.723047 -7.33148,4.120517 -8.01003,6.995317 -3.53926,14.994417 4.06906,7.28034 4.55577,10.52279 1.96795,13.11061 -1.98128,1.98127 -2.71278,2.07574 -4.82121,0.62261 z m 4.08104,-38.45073 c 13.32962,-6.669748 16.84132,-12.141271 11.54706,-17.991348 -3.25454,-3.596224 -5.45268,-3.320398 -14.70158,1.844778 -13.16951,7.354672 -15.16303,10.315355 -11.52402,17.114895 1.99945,3.735992 5.7746,3.486949 14.67854,-0.968325 z m 160.01459,32.43054 c -2.75722,-1.58887 -9.28219,-5.11649 -14.49993,-7.83917 -5.21774,-2.72268 -9.86747,-5.94231 -10.33271,-7.15473 -0.46526,-1.21243 1.30384,-6.885207 3.93134,-12.606176 2.6275,-5.720968 7.19125,-16.323696 10.14168,-23.561617 2.95043,-7.237921 6.4172,-13.569686 7.70394,-14.070588 2.73146,-1.063307 29.98813,12.422521 35.57787,17.602929 3.38698,3.138941 3.49348,3.588334 1.35687,5.724958 -2.13663,2.136625 -3.39403,1.781193 -16.01849,-4.527937 -11.27987,-5.637158 -14.07956,-6.531451 -15.84934,-5.062667 -3.64839,3.027894 -1.6779,7.368277 5.15039,11.344676 4.00462,2.332063 6.61878,4.941189 6.90316,6.889865 0.54869,3.759894 -1.36314,3.953256 -9.76781,0.987917 -9.71031,-3.425996 -11.27034,-2.938196 -14.58776,4.561366 -2.07692,4.695231 -2.55481,7.383062 -1.59165,8.952024 0.75702,1.2332 6.15733,4.82036 12.00065,7.97147 8.8498,4.77241 10.62422,6.32735 10.62422,9.31011 0,4.70726 -4.14779,5.27777 -10.74243,1.47757 z m -40.521,-19.11574 c -0.39734,-1.035425 0.32564,-6.898353 1.60659,-13.028727 2.79709,-13.386258 2.43021,-13.889638 -12.12489,-16.635989 -11.91243,-2.247712 -13.15501,-1.168139 -14.63877,12.718279 -1.16972,10.947304 -3.69044,15.30468 -7.91571,13.683293 -2.23444,-0.857438 -2.38452,-2.494273 -1.48225,-16.166275 0.55214,-8.366732 1.71763,-20.69088 2.58995,-27.386994 1.51228,-11.608578 1.75257,-12.174754 5.16685,-12.174754 3.15911,0 3.62578,0.674736 3.96259,5.729296 0.83594,12.545031 1.59773,13.090715 21.95658,15.728235 7.55715,0.979039 9.03346,-0.159604 10.45623,-8.06461 0.51746,-2.875009 1.85966,-5.989854 2.98268,-6.921875 2.98675,-2.478778 7.90862,-0.428658 7.90862,3.294197 0,6.055186 -8.99358,43.491168 -11.67608,48.601959 -1.53661,2.927595 -7.73949,3.367795 -8.79239,0.623965 z m -66.86276,-2.772451 c -0.7317,-1.772501 -2.6785,-11.246019 -4.32622,-21.052262 -1.64772,-9.806244 -3.70985,-18.689844 -4.58251,-19.741335 -1.16261,-1.400878 -3.76866,-1.664936 -9.7514,-0.988065 -6.61399,0.748287 -8.32541,0.505037 -9.01068,-1.280723 -1.282,-3.340864 1.94011,-5.180604 15.70704,-8.968263 17.11388,-4.708499 29.35989,-5.907697 31.68756,-3.103025 3.07967,3.710776 0.52271,6.491674 -6.90869,7.513752 -3.84022,0.528167 -7.70978,1.836951 -8.59901,2.908413 -1.68294,2.027814 -0.60812,13.759861 3.08929,33.721017 0.95969,5.181069 1.33106,10.498572 0.82525,11.816673 -1.34329,3.500559 -6.56348,2.970109 -8.13063,-0.826182 z"
       id="path951" />
    <path
       style="fill:#000000;stroke-width:1.43232"
       d="m 222.58606,487.51464 c -3.545,-0.60682 -10.31273,-1.74408 -15.0394,-2.52726 -27.77312,-4.60179 -58.52239,-17.57141 -82.8678,-34.95249 C 107.23878,437.58375 102.6907,433.64345 85.342107,415.95473 69.580255,399.88386 62.391402,390.1768 50.755244,369.2523 40.041475,349.98649 36.879658,341.08545 39.054375,336.31248 c 1.22262,-2.68336 1.15026,-3.43509 -0.330657,-3.43509 -3.654613,0 -6.305961,-5.13575 -9.98246,-19.33637 -9.670599,-37.35306 -8.142497,-97.41141 3.279228,-128.88215 1.43494,-3.95374 4.263871,-11.83774 6.286516,-17.51997 8.600484,-24.16144 22.443444,-48.6814 38.114628,-67.512235 l 7.361542,-8.845791 3.469532,2.52345 c 1.908243,1.387898 3.489787,3.078546 3.514543,3.756996 0.02475,0.678449 -2.429458,4.22345 -5.453807,7.87778 -8.454052,10.21505 -19.280792,26.92276 -26.030908,40.17062 -3.360257,6.59487 -7.294286,13.17541 -8.742289,14.62341 -1.448002,1.44801 -2.298428,3.50392 -1.889835,4.56868 0.408592,1.06478 -1.226919,7.04145 -3.634469,13.2815 -6.022676,15.60995 -9.896981,36.49878 -11.933586,64.34151 -0.623461,8.52342 1.605459,41.81365 3.404452,50.8475 4.832973,24.26937 7.864523,33.24951 18.857648,55.86063 6.319559,12.99834 13.501225,26.53381 15.959256,30.07881 27.081796,39.0577 61.790221,67.49709 101.923651,83.51424 34.8313,13.90108 75.2922,18.48788 109.62389,12.42739 42.8645,-7.56677 73.78921,-21.87809 105.8045,-48.96417 33.29269,-28.16681 64.27764,-76.05981 70.23896,-108.56739 0.6501,-3.545 2.17159,-10.31274 3.38112,-15.0394 2.53754,-9.91653 5.60223,-33.63437 5.82991,-45.11821 0.71108,-35.86541 -10.58171,-85.40666 -25.95627,-113.86975 -9.47004,-17.53201 -10.58871,-19.12725 -26.61602,-37.95478 C 395.0121,81.032932 371.33733,61.134879 350.48105,50.464773 305.08779,27.241526 272.29958,21.137238 224.82607,27.071176 c -10.98662,1.373269 -34.68421,6.388881 -40.64193,8.601892 -32.9453,12.237638 -59.69978,28.891316 -83.70623,52.104043 l -8.238404,7.966013 -3.005898,-3.005897 c -3.80491,-3.80491 -2.744382,-5.98056 7.585264,-15.560997 22.440388,-20.812787 60.082658,-42.234451 90.277568,-51.375634 18.94519,-5.735454 42.1968,-9.466802 58.99162,-9.466802 10.78632,0 12.17419,0.315456 14.17858,3.222729 l 2.22188,3.222728 -0.84172,-3.451474 -0.84174,-3.451475 12.48208,0.959448 c 35.67935,2.742531 74.76227,17.394631 106.47197,39.916099 20.04836,14.239112 47.38684,42.135909 59.34876,60.560781 16.05554,24.73021 34.39104,68.23898 31.17738,73.98148 -0.77718,1.38874 -0.20902,4.20628 1.57552,7.81315 5.13526,10.3793 6.3335,21.23827 6.30524,57.1408 -0.0297,37.62095 0.7466,32.41438 -11.75832,78.86878 -3.06309,11.37904 -8.10417,22.24325 -12.54392,27.03382 -1.63641,1.76572 -2.75765,3.86335 -2.49164,4.66138 0.6493,1.94787 -8.89152,19.79242 -14.40335,26.93912 -5.77566,7.48878 -23.50276,27.66065 -28.32146,32.22729 -11.57501,10.96955 -29.64588,24.06518 -43.54502,31.55627 -11.75958,6.33797 -26.35317,14.17951 -29.01758,15.59195 -9.52702,5.05043 -29.52716,10.1371 -54.05721,13.74845 -14.90027,2.19365 -48.2653,2.55262 -59.44145,0.63952 z m 7.87778,-99.71543 c -8.60013,-1.13823 -27.3312,-6.53829 -31.95108,-9.21133 -2.60531,-1.50742 -5.53213,-2.74077 -6.50406,-2.74077 -3.55523,0 -24.81399,-14.6335 -33.60752,-23.13381 -17.89115,-17.29452 -28.07055,-34.96847 -39.06058,-67.81876 -2.95074,-8.82005 -3.33228,-12.52486 -3.17144,-30.79497 0.36081,-40.98199 11.83729,-70.2388 38.5653,-98.31391 5.14528,-5.4046 9.99604,-9.64944 10.77948,-9.43297 0.78342,0.21645 1.0371,-0.23313 0.56371,-0.99909 -0.47339,-0.76597 2.54029,-3.93541 6.69707,-7.04321 20.24955,-15.13948 54.11331,-26.39071 78.45782,-26.06759 11.18545,0.14845 18.22883,1.22952 37.95659,5.82582 10.15012,2.36484 31.53797,12.83561 40.82123,19.98469 14.16415,10.90788 29.63138,29.33467 37.17007,44.28236 11.72893,23.25605 17.67148,57.08525 14.53575,82.74769 -1.87604,15.35321 -9.64959,40.4536 -16.07125,51.89312 -5.84086,10.4049 -20.73876,29.51183 -28.4253,36.45616 -16.33413,14.75692 -40.29388,26.68567 -62.26568,31.00002 -13.27389,2.60643 -36.78883,4.38581 -44.49011,3.36655 z m 4.55883,-9.89313 c 0.24251,-0.73855 -4.36936,-3.81238 -10.24859,-6.83073 -23.46473,-12.04664 -37.3807,-35.58841 -35.70297,-60.39898 0.78818,-11.65564 1.50055,-14.30933 6.67115,-24.85118 9.54275,-19.45579 28.14516,-31.3687 53.0098,-33.94725 4.90926,-0.50911 11.98753,-1.79413 15.72948,-2.85561 3.74195,-1.06148 6.80354,-1.61843 6.80354,-1.23764 0,0.38078 3.99496,-2.0206 8.8777,-5.33641 21.70534,-14.73981 29.79305,-28.66952 33.15293,-57.10026 0.7951,-6.72798 -4.02903,-25.21895 -8.21219,-31.47751 -12.59311,-18.84093 -35.5101,-31.54474 -56.90504,-31.54474 -9.39918,0 -32.32685,4.44824 -41.49948,8.05139 -21.67707,8.51508 -39.07401,22.56933 -56.67729,45.78716 -10.82623,14.27924 -14.20175,20.79114 -18.44397,35.58128 -5.78198,20.15831 -6.3436,26.02806 -4.82634,50.44145 l 1.41125,22.70749 8.45524,17.18789 c 9.73577,19.79095 23.04544,37.33511 37.45083,49.36584 10.32521,8.62317 35.47257,21.86676 49.23351,25.92835 9.00264,2.65714 10.99232,2.74704 11.72044,0.52946 z"
       id="path931" />
  </g>
</svg>
