<?xml version="1.0" encoding="UTF-8" standalone="no"?>
<svg
   xmlns:dc="http://purl.org/dc/elements/1.1/"
   xmlns:cc="http://creativecommons.org/ns#"
   xmlns:rdf="http://www.w3.org/1999/02/22-rdf-syntax-ns#"
   xmlns:svg="http://www.w3.org/2000/svg"
   xmlns="http://www.w3.org/2000/svg"
   xmlns:sodipodi="http://sodipodi.sourceforge.net/DTD/sodipodi-0.dtd"
   xmlns:inkscape="http://www.inkscape.org/namespaces/inkscape"
   sodipodi:docname="The-European-Flag.svg"
   inkscape:version="1.0 (6e3e5246a0, 2020-05-07)"
   id="svg5252"
   version="1.1"
   viewBox="0 0 270 180"
   height="180"
   width="270">
  <defs
     id="defs5246" />
  <sodipodi:namedview
     inkscape:window-maximized="0"
     inkscape:window-y="14"
     inkscape:window-x="236"
     inkscape:window-height="954"
     inkscape:window-width="1457"
     inkscape:guide-bbox="true"
     showguides="true"
     units="px"
     showgrid="true"
     inkscape:document-rotation="0"
     inkscape:current-layer="layer1"
     inkscape:document-units="px"
     inkscape:cy="96.344339"
     inkscape:cx="105.16381"
     inkscape:zoom="2.8284271"
     inkscape:pageshadow="2"
     inkscape:pageopacity="0.0"
     borderopacity="1.0"
     bordercolor="#666666"
     pagecolor="#ffffff"
     id="base">
    <inkscape:grid
       spacingy="10"
       spacingx="10"
       id="grid5254"
       type="xygrid" />
    <sodipodi:guide
       inkscape:color="rgb(0,0,255)"
       inkscape:locked="true"
       inkscape:label=""
       id="guide5819"
       orientation="-1,0"
       position="135,90" />
  </sodipodi:namedview>
  <metadata
     id="metadata5249">
    <rdf:RDF>
      <cc:Work
         rdf:about="">
        <dc:format>image/svg+xml</dc:format>
        <dc:type
           rdf:resource="http://purl.org/dc/dcmitype/StillImage" />
        <dc:title></dc:title>
      </cc:Work>
    </rdf:RDF>
  </metadata>
  <g
     id="layer1"
     inkscape:groupmode="layer"
     inkscape:label="Layer 1">
    <rect
       y="0"
       x="0"
       height="180"
       width="270"
       id="rect5817"
       style="fill:#003399;fill-opacity:1" />
    <path
       sodipodi:type="star"
       style="fill:#ffcc00;fill-opacity:1"
       id="path5827"
       sodipodi:sides="5"
       sodipodi:cx="135"
       sodipodi:cy="150"
       sodipodi:r1="10"
       sodipodi:r2="3.8199999"
       sodipodi:arg1="-1.5707963"
       sodipodi:arg2="-0.9424778"
       inkscape:flatsided="false"
       inkscape:rounded="0"
       inkscape:randomized="0"
       d="m 135,140 2.24534,6.90956 7.26523,2.7e-4 -5.87753,4.27061 2.24481,6.90973 L 135,153.82 l -5.87785,4.27017 2.24481,-6.90973 -5.87753,-4.27061 7.26523,-2.7e-4 z"
       inkscape:transform-center-y="-0.95491503" />
    <path
       sodipodi:type="star"
       style="fill:#ffcc00;fill-opacity:1"
       id="path5829"
       sodipodi:sides="5"
       sodipodi:cx="135"
       sodipodi:cy="30"
       sodipodi:r1="10"
       sodipodi:r2="3.8199999"
       sodipodi:arg1="-1.5707963"
       sodipodi:arg2="-0.9424778"
       inkscape:flatsided="false"
       inkscape:rounded="0"
       inkscape:randomized="0"
       d="m 135,20 2.24534,6.909555 7.26523,2.75e-4 -5.87753,4.270615 2.24481,6.909725 L 135,33.82 l -5.87785,4.27017 2.24481,-6.909725 -5.87753,-4.270615 7.26523,-2.75e-4 z"
       inkscape:transform-center-y="-0.95491503" />
    <path
       sodipodi:type="star"
       style="fill:#ffcc00;fill-opacity:1"
       id="path5831"
       sodipodi:sides="5"
       sodipodi:cx="195"
       sodipodi:cy="90"
       sodipodi:r1="10"
       sodipodi:r2="3.8199999"
       sodipodi:arg1="-1.5707963"
       sodipodi:arg2="-0.9424778"
       inkscape:flatsided="false"
       inkscape:rounded="0"
       inkscape:randomized="0"
       d="m 195,80 2.24534,6.909555 7.26523,2.75e-4 -5.87753,4.270615 2.24481,6.909725 L 195,93.82 l -5.87785,4.27017 2.24481,-6.909725 -5.87753,-4.270615 7.26523,-2.75e-4 z"
       inkscape:transform-center-y="-0.95491503" />
    <path
       sodipodi:type="star"
       style="fill:#ffcc00;fill-opacity:1"
       id="path5833"
       sodipodi:sides="5"
       sodipodi:cx="75"
       sodipodi:cy="90"
       sodipodi:r1="10"
       sodipodi:r2="3.8199999"
       sodipodi:arg1="-1.5707963"
       sodipodi:arg2="-0.9424778"
       inkscape:flatsided="false"
       inkscape:rounded="0"
       inkscape:randomized="0"
       d="m 75,80 2.24534,6.909555 7.265225,2.75e-4 -5.877529,4.270615 2.244816,6.909725 L 75,93.82 l -5.877853,4.27017 2.244817,-6.909725 -5.877529,-4.270615 7.265225,-2.75e-4 z"
       inkscape:transform-center-y="-0.95491503" />
    <path
       sodipodi:type="star"
       style="fill:#ffcc00;fill-opacity:1"
       id="path5835"
       sodipodi:sides="5"
       sodipodi:cx="165"
       sodipodi:cy="142"
       sodipodi:r1="10"
       sodipodi:r2="3.8199999"
       sodipodi:arg1="-1.5707963"
       sodipodi:arg2="-0.9424778"
       inkscape:flatsided="false"
       inkscape:rounded="0"
       inkscape:randomized="0"
       d="m 165,132 2.24534,6.90956 7.26523,2.7e-4 -5.87753,4.27061 2.24481,6.90973 L 165,145.82 l -5.87785,4.27017 2.24481,-6.90973 -5.87753,-4.27061 7.26523,-2.7e-4 z"
       inkscape:transform-center-y="-0.95491503" />
    <path
       sodipodi:type="star"
       style="fill:#ffcc00;fill-opacity:1"
       id="path5837"
       sodipodi:sides="5"
       sodipodi:cx="105"
       sodipodi:cy="142"
       sodipodi:r1="10"
       sodipodi:r2="3.8199999"
       sodipodi:arg1="-1.5707963"
       sodipodi:arg2="-0.9424778"
       inkscape:flatsided="false"
       inkscape:rounded="0"
       inkscape:randomized="0"
       d="m 105,132 2.24534,6.90956 7.26523,2.7e-4 -5.87753,4.27061 2.24481,6.90973 L 105,145.82 l -5.877853,4.27017 2.244813,-6.90973 -5.877525,-4.27061 7.265225,-2.7e-4 z"
       inkscape:transform-center-y="-0.95491503" />
    <path
       sodipodi:type="star"
       style="fill:#ffcc00;fill-opacity:1"
       id="path5839"
       sodipodi:sides="5"
       sodipodi:cx="165"
       sodipodi:cy="38"
       sodipodi:r1="10"
       sodipodi:r2="3.8199999"
       sodipodi:arg1="-1.5707963"
       sodipodi:arg2="-0.9424778"
       inkscape:flatsided="false"
       inkscape:rounded="0"
       inkscape:randomized="0"
       d="m 165,28 2.24534,6.909555 7.26523,2.75e-4 -5.87753,4.270615 2.24481,6.909725 L 165,41.82 l -5.87785,4.27017 2.24481,-6.909725 -5.87753,-4.270615 7.26523,-2.75e-4 z"
       inkscape:transform-center-y="-0.95491503" />
    <path
       sodipodi:type="star"
       style="fill:#ffcc00;fill-opacity:1"
       id="path5841"
       sodipodi:sides="5"
       sodipodi:cx="105"
       sodipodi:cy="38"
       sodipodi:r1="10"
       sodipodi:r2="3.8199999"
       sodipodi:arg1="-1.5707963"
       sodipodi:arg2="-0.9424778"
       inkscape:flatsided="false"
       inkscape:rounded="0"
       inkscape:randomized="0"
       d="m 105,28 2.24534,6.909555 7.26523,2.75e-4 -5.87753,4.270615 2.24481,6.909725 L 105,41.82 l -5.877853,4.27017 2.244813,-6.909725 -5.877525,-4.270615 7.265225,-2.75e-4 z"
       inkscape:transform-center-y="-0.95491503" />
    <path
       sodipodi:type="star"
       style="fill:#ffcc00;fill-opacity:1"
       id="path5843"
       sodipodi:sides="5"
       sodipodi:cx="187"
       sodipodi:cy="120"
       sodipodi:r1="10"
       sodipodi:r2="3.8199999"
       sodipodi:arg1="-1.5707963"
       sodipodi:arg2="-0.9424778"
       inkscape:flatsided="false"
       inkscape:rounded="0"
       inkscape:randomized="0"
       d="m 187,110 2.24534,6.90956 7.26523,2.7e-4 -5.87753,4.27061 2.24481,6.90973 L 187,123.82 l -5.87785,4.27017 2.24481,-6.90973 -5.87753,-4.27061 7.26523,-2.7e-4 z"
       inkscape:transform-center-y="-0.95491503" />
    <path
       sodipodi:type="star"
       style="fill:#ffcc00;fill-opacity:1"
       id="path5845"
       sodipodi:sides="5"
       sodipodi:cx="187"
       sodipodi:cy="60"
       sodipodi:r1="10"
       sodipodi:r2="3.8199999"
       sodipodi:arg1="-1.5707963"
       sodipodi:arg2="-0.9424778"
       inkscape:flatsided="false"
       inkscape:rounded="0"
       inkscape:randomized="0"
       d="m 187,50 2.24534,6.909555 7.26523,2.75e-4 -5.87753,4.270615 2.24481,6.909725 L 187,63.82 l -5.87785,4.27017 2.24481,-6.909725 -5.87753,-4.270615 7.26523,-2.75e-4 z"
       inkscape:transform-center-y="-0.95491503" />
    <path
       sodipodi:type="star"
       style="fill:#ffcc00;fill-opacity:1"
       id="path5847"
       sodipodi:sides="5"
       sodipodi:cx="83"
       sodipodi:cy="120"
       sodipodi:r1="10"
       sodipodi:r2="3.8199999"
       sodipodi:arg1="-1.5707963"
       sodipodi:arg2="-0.9424778"
       inkscape:flatsided="false"
       inkscape:rounded="0"
       inkscape:randomized="0"
       d="m 83,110 2.24534,6.90956 7.265225,2.7e-4 -5.877529,4.27061 2.244816,6.90973 L 83,123.82 l -5.877853,4.27017 2.244817,-6.90973 -5.877529,-4.27061 7.265225,-2.7e-4 z"
       inkscape:transform-center-y="-0.95491503" />
    <path
       sodipodi:type="star"
       style="fill:#ffcc00;fill-opacity:1"
       id="path5849"
       sodipodi:sides="5"
       sodipodi:cx="83"
       sodipodi:cy="60"
       sodipodi:r1="10"
       sodipodi:r2="3.8199999"
       sodipodi:arg1="-1.5707963"
       sodipodi:arg2="-0.9424778"
       inkscape:flatsided="false"
       inkscape:rounded="0"
       inkscape:randomized="0"
       d="m 83,50 2.24534,6.909555 7.265225,2.75e-4 -5.877529,4.270615 2.244816,6.909725 L 83,63.82 l -5.877853,4.27017 2.244817,-6.909725 -5.877529,-4.270615 7.265225,-2.75e-4 z"
       inkscape:transform-center-y="-0.95491503" />
  </g>
</svg>
